<!--
  Tonomura Buildup — Single Electrons Form an Interference Pattern
  Book: Quantum Mechanics — A Companion Guide · Chapter: 01-why-quantum-mechanics · Figure: 04
-->
<svg viewBox="0 0 700 420" xmlns="http://www.w3.org/2000/svg" role="img" aria-labelledby="fig-title">
  <title id="fig-title">Tonomura Buildup — One Electron at a Time, Pattern Emerges</title>
  <desc>Four detector panels showing electrons accumulating one by one. N=100: random-looking dots. N=3,000: emerging vertical clustering. N=20,000: bright bands clear. N=70,000: sharp interference fringes. Each electron lands as a point — the pattern is wave statistics.</desc>
  <metadata><cajal:figure xmlns:cajal="https://bearbrown.ai/cajal/1.0" book="Quantum Mechanics — A Companion Guide" book-slug="quantum-mechanics-a-companion-guide" chapter="01-why-quantum-mechanics" figure-number="04" figure-title="Tonomura Buildup" figure-slug="tonomura-buildup" figure-type="conceptual" priority="Critical" author="Humanitarians AI" date-generated="2026-05-26" source-file="pantry/01-why-quantum-mechanics-cajal.md"/></metadata>
  <rect x="0" y="0" width="700" height="420" fill="#FFFFFF"/>
  <text x="32" y="36" font-family="'EB Garamond', Georgia, serif" font-size="14" fill="#2a1a0e">Tonomura 1989 — Single Electrons Build a Wave</text>
  <text x="32" y="56" font-family="'Inter', sans-serif" font-size="11" fill="#545454">Each electron is a point. The pattern is statistical. Wave-particle duality, in one experiment.</text>

  <!-- 4 panels horizontal -->
  <!-- Panel 1: N=100 -->
  <rect x="40" y="100" width="150" height="240" fill="#FFFFFF" stroke="#2a1a0e" stroke-width="1"/>
  <text x="115" y="92" text-anchor="middle" font-family="'JetBrains Mono', monospace" font-size="10" fill="#2a1a0e">N = 100</text>
  <g fill="#0072B2">
    <circle cx="60" cy="130" r="1.2"/><circle cx="75" cy="160" r="1.2"/><circle cx="90" cy="200" r="1.2"/><circle cx="105" cy="180" r="1.2"/><circle cx="120" cy="150" r="1.2"/><circle cx="135" cy="210" r="1.2"/><circle cx="150" cy="170" r="1.2"/><circle cx="170" cy="220" r="1.2"/><circle cx="65" cy="240" r="1.2"/><circle cx="80" cy="270" r="1.2"/><circle cx="100" cy="250" r="1.2"/><circle cx="120" cy="290" r="1.2"/><circle cx="140" cy="265" r="1.2"/><circle cx="160" cy="240" r="1.2"/><circle cx="170" cy="300" r="1.2"/><circle cx="55" cy="190" r="1.2"/><circle cx="100" cy="320" r="1.2"/><circle cx="145" cy="320" r="1.2"/><circle cx="180" cy="190" r="1.2"/><circle cx="65" cy="310" r="1.2"/>
  </g>

  <!-- Panel 2: N=3000 -->
  <rect x="200" y="100" width="150" height="240" fill="#FFFFFF" stroke="#2a1a0e" stroke-width="1"/>
  <text x="275" y="92" text-anchor="middle" font-family="'JetBrains Mono', monospace" font-size="10" fill="#2a1a0e">N = 3,000</text>
  <g fill="#0072B2">
    <!-- Five vertical band hints; denser dot pattern -->
    <!-- Band 1 centered at x=225 -->
    <circle cx="222" cy="120" r="1.2"/><circle cx="225" cy="135" r="1.2"/><circle cx="228" cy="150" r="1.2"/><circle cx="220" cy="170" r="1.2"/><circle cx="227" cy="185" r="1.2"/><circle cx="223" cy="200" r="1.2"/><circle cx="226" cy="215" r="1.2"/><circle cx="221" cy="230" r="1.2"/><circle cx="228" cy="245" r="1.2"/><circle cx="224" cy="260" r="1.2"/><circle cx="227" cy="275" r="1.2"/><circle cx="222" cy="290" r="1.2"/><circle cx="225" cy="305" r="1.2"/><circle cx="228" cy="320" r="1.2"/>
    <!-- Band 2 at x=255 -->
    <circle cx="252" cy="125" r="1.2"/><circle cx="256" cy="145" r="1.2"/><circle cx="254" cy="165" r="1.2"/><circle cx="258" cy="195" r="1.2"/><circle cx="253" cy="225" r="1.2"/><circle cx="257" cy="245" r="1.2"/><circle cx="255" cy="280" r="1.2"/><circle cx="251" cy="310" r="1.2"/>
    <!-- Band 3 at x=275 -->
    <circle cx="273" cy="115" r="1.2"/><circle cx="277" cy="130" r="1.2"/><circle cx="271" cy="150" r="1.2"/><circle cx="275" cy="170" r="1.2"/><circle cx="278" cy="190" r="1.2"/><circle cx="274" cy="210" r="1.2"/><circle cx="276" cy="230" r="1.2"/><circle cx="272" cy="250" r="1.2"/><circle cx="278" cy="275" r="1.2"/><circle cx="275" cy="295" r="1.2"/><circle cx="271" cy="315" r="1.2"/>
    <!-- Band 4 at x=300 -->
    <circle cx="298" cy="135" r="1.2"/><circle cx="302" cy="160" r="1.2"/><circle cx="300" cy="190" r="1.2"/><circle cx="304" cy="220" r="1.2"/><circle cx="299" cy="250" r="1.2"/><circle cx="303" cy="285" r="1.2"/>
    <!-- Band 5 at x=325 -->
    <circle cx="323" cy="125" r="1.2"/><circle cx="327" cy="155" r="1.2"/><circle cx="324" cy="180" r="1.2"/><circle cx="328" cy="210" r="1.2"/><circle cx="322" cy="240" r="1.2"/><circle cx="326" cy="270" r="1.2"/><circle cx="324" cy="300" r="1.2"/>
  </g>

  <!-- Panel 3: N=20000 (clear bands) -->
  <rect x="360" y="100" width="150" height="240" fill="#FFFFFF" stroke="#2a1a0e" stroke-width="1"/>
  <text x="435" y="92" text-anchor="middle" font-family="'JetBrains Mono', monospace" font-size="10" fill="#2a1a0e">N = 20,000</text>
  <g fill="#0072B2">
    <rect x="372" y="120" width="6" height="200" opacity="0.7"/>
    <rect x="394" y="120" width="6" height="200" opacity="0.7"/>
    <rect x="416" y="120" width="6" height="200" opacity="0.7"/>
    <rect x="438" y="120" width="6" height="200" opacity="0.7"/>
    <rect x="460" y="120" width="6" height="200" opacity="0.7"/>
    <rect x="482" y="120" width="6" height="200" opacity="0.7"/>
    <rect x="504" y="120" width="6" height="200" opacity="0.7"/>
  </g>

  <!-- Panel 4: N=70000 (sharp fringes) -->
  <rect x="520" y="100" width="150" height="240" fill="#FFFFFF" stroke="#2a1a0e" stroke-width="1"/>
  <text x="595" y="92" text-anchor="middle" font-family="'JetBrains Mono', monospace" font-size="10" fill="#2a1a0e">N = 70,000</text>
  <g fill="#0072B2">
    <rect x="532" y="120" width="8" height="200"/>
    <rect x="556" y="120" width="8" height="200"/>
    <rect x="580" y="120" width="8" height="200"/>
    <rect x="604" y="120" width="8" height="200"/>
    <rect x="628" y="120" width="8" height="200"/>
    <rect x="652" y="120" width="8" height="200"/>
  </g>

  <text x="350" y="396" text-anchor="middle" font-family="'EB Garamond', Georgia, serif" font-size="11" fill="#C8102E" font-style="italic">"The wave is the probability of finding the particle" — Born's rule, made visible.</text>
</svg>
