<!--
  Tonomura Buildup — Single Electrons Form an Interference Pattern
  Book: Quantum Mechanics — A Companion Guide · Chapter: 01-why-quantum-mechanics · Figure: 04
-->
<svg viewBox="0 0 700 420" xmlns="http://www.w3.org/2000/svg" role="img" aria-labelledby="fig-title">
  <title id="fig-title">Tonomura Buildup — One Electron at a Time, Pattern Emerges</title>
  <desc>Four detector panels showing electrons accumulating one by one. N=100: random-looking dots. N=3,000: emerging vertical clustering. N=20,000: bright bands clear. N=70,000: sharp interference fringes. Each electron lands as a point — the pattern is wave statistics.</desc>
  <metadata><cajal:figure xmlns:cajal="https://bearbrown.ai/cajal/1.0" book="Quantum Mechanics — A Companion Guide" book-slug="quantum-mechanics-a-companion-guide" chapter="01-why-quantum-mechanics" figure-number="04" figure-title="Tonomura Buildup" figure-slug="tonomura-buildup" figure-type="conceptual" priority="Critical" author="Humanitarians AI" date-generated="2026-05-26" source-file="pantry/01-why-quantum-mechanics-cajal.md"/></metadata>
  <rect x="0" y="0" width="700" height="420" fill="#FFFFFF"/>
  <text x="32" y="36" font-family="'EB Garamond', Georgia, serif" font-size="14" fill="#2a1a0e">Tonomura 1989 — Single Electrons Build a Wave</text>
  <text x="32" y="56" font-family="'Inter', sans-serif" font-size="11" fill="#545454">Each electron is a point. The pattern is statistical. Wave-particle duality, in one experiment.</text>

  <!-- 4 panels horizontal -->
  <!-- Panel 1: N=100 -->
  <rect x="40" y="100" width="150" height="240" fill="#FFFFFF" stroke="#2a1a0e" stroke-width="1"/>
  <text x="115" y="92" text-anchor="middle" font-family="'JetBrains Mono', monospace" font-size="10" fill="#2a1a0e">N = 100</text>
  <g fill="#0072B2">
    <circle cx="60" cy="130" r="1.2"/><circle cx="75" cy="160" r="1.2"/><circle cx="90" cy="200" r="1.2"/><circle cx="105" cy="180" r="1.2"/><circle cx="120" cy="150" r="1.2"/><circle cx="135" cy="210" r="1.2"/><circle cx="150" cy="170" r="1.2"/><circle cx="170" cy="220" r="1.2"/><circle cx="65" cy="240" r="1.2"/><circle cx="80" cy="270" r="1.2"/><circle cx="100" cy="250" r="1.2"/><circle cx="120" cy="290" r="1.2"/><circle cx="140" cy="265" r="1.2"/><circle cx="160" cy="240" r="1.2"/><circle cx="170" cy="300" r="1.2"/><circle cx="55" cy="190" r="1.2"/><circle cx="100" cy="320" r="1.2"/><circle cx="145" cy="320" r="1.2"/><circle cx="180" cy="190" r="1.2"/><circle cx="65" cy="310" r="1.2"/>
  </g>

  <!-- Panel 2: N=3000 -->
  <rect x="200" y="100" width="150" height="240" fill="#FFFFFF" stroke="#2a1a0e" stroke-width="1"/>
  <text x="275" y="92" text-anchor="middle" font-family="'JetBrains Mono', monospace" font-size="10" fill="#2a1a0e">N = 3,000</text>
  <g fill="#0072B2">
    <circle cx="222" cy="120" r="1.2"/><circle cx="225" cy="135" r="1.2"/><circle cx="228" cy="150" r="1.2"/><circle cx="220" cy="170" r="1.2"/><circle cx="227" cy="185" r="1.2"/><circle cx="223" cy="200" r="1.2"/><circle cx="226" cy="215" r="1.2"/><circle cx="221" cy="230" r="1.2"/><circle cx="228" cy="245" r="1.2"/><circle cx="224" cy="260" r="1.2"/><circle cx="227" cy="275" r="1.2"/><circle cx="222" cy="290" r="1.2"/><circle cx="225" cy="305" r="1.2"/><circle cx="228" cy="320" r="1.2"/>
    <circle cx="252" cy="125" r="1.2"/><circle cx="256" cy="145" r="1.2"/><circle cx="254" cy="165" r="1.2"/><circle cx="258" cy="195" r="1.2"/><circle cx="253" cy="225" r="1.2"/><circle cx="257" cy="245" r="1.2"/><circle cx="255" cy="280" r="1.2"/><circle cx="251" cy="310" r="1.2"/>
    <circle cx="273" cy="115" r="1.2"/><circle cx="277" cy="130" r="1.2"/><circle cx="271" cy="150" r="1.2"/><circle cx="275" cy="170" r="1.2"/><circle cx="278" cy="190" r="1.2"/><circle cx="274" cy="210" r="1.2"/><circle cx="276" cy="230" r="1.2"/><circle cx="272" cy="250" r="1.2"/><circle cx="278" cy="275" r="1.2"/><circle cx="275" cy="295" r="1.2"/><circle cx="271" cy="315" r="1.2"/>
    <circle cx="298" cy="135" r="1.2"/><circle cx="302" cy="160" r="1.2"/><circle cx="300" cy="190" r="1.2"/><circle cx="304" cy="220" r="1.2"/><circle cx="299" cy="250" r="1.2"/><circle cx="303" cy="285" r="1.2"/>
    <circle cx="323" cy="125" r="1.2"/><circle cx="327" cy="155" r="1.2"/><circle cx="324" cy="180" r="1.2"/><circle cx="328" cy="210" r="1.2"/><circle cx="322" cy="240" r="1.2"/><circle cx="326" cy="270" r="1.2"/><circle cx="324" cy="300" r="1.2"/>
  </g>

  <!-- Panel 3: N=20000 (clear bands, dot accumulation with diffraction envelope) -->
  <rect x="360" y="100" width="150" height="240" fill="#FFFFFF" stroke="#2a1a0e" stroke-width="1"/>
  <text x="435" y="92" text-anchor="middle" font-family="'JetBrains Mono', monospace" font-size="10" fill="#2a1a0e">N = 20,000</text>
  <g fill="#0072B2"><circle cx="375.7" cy="115.5" r="1.2"/><circle cx="373.9" cy="159.1" r="1.2"/><circle cx="376.2" cy="258.9" r="1.2"/><circle cx="377.0" cy="129.1" r="1.2"/><circle cx="374.6" cy="116.6" r="1.2"/><circle cx="373.6" cy="221.2" r="1.2"/><circle cx="372.6" cy="153.7" r="1.2"/><circle cx="375.7" cy="229.9" r="1.2"/><circle cx="373.6" cy="239.6" r="1.2"/><circle cx="398.5" cy="111.4" r="1.2"/><circle cx="398.5" cy="263.6" r="1.2"/><circle cx="396.2" cy="144.2" r="1.2"/><circle cx="399.3" cy="184.1" r="1.2"/><circle cx="395.0" cy="131.3" r="1.2"/><circle cx="398.7" cy="242.8" r="1.2"/><circle cx="398.5" cy="270.5" r="1.2"/><circle cx="397.2" cy="324.1" r="1.2"/><circle cx="396.4" cy="231.4" r="1.2"/><circle cx="398.6" cy="246.1" r="1.2"/><circle cx="398.8" cy="237.0" r="1.2"/><circle cx="398.0" cy="120.1" r="1.2"/><circle cx="395.6" cy="173.7" r="1.2"/><circle cx="394.9" cy="161.2" r="1.2"/><circle cx="395.0" cy="171.2" r="1.2"/><circle cx="397.7" cy="190.3" r="1.2"/><circle cx="396.4" cy="156.1" r="1.2"/><circle cx="395.8" cy="316.1" r="1.2"/><circle cx="397.7" cy="244.0" r="1.2"/><circle cx="417.4" cy="270.4" r="1.2"/><circle cx="417.3" cy="193.5" r="1.2"/><circle cx="421.4" cy="250.8" r="1.2"/><circle cx="419.3" cy="260.6" r="1.2"/><circle cx="420.7" cy="280.7" r="1.2"/><circle cx="417.6" cy="117.1" r="1.2"/><circle cx="418.1" cy="168.9" r="1.2"/><circle cx="417.6" cy="317.4" r="1.2"/><circle cx="420.9" cy="179.2" r="1.2"/><circle cx="419.8" cy="197.0" r="1.2"/><circle cx="421.1" cy="210.9" r="1.2"/><circle cx="417.8" cy="164.3" r="1.2"/><circle cx="419.3" cy="167.8" r="1.2"/><circle cx="419.4" cy="307.5" r="1.2"/><circle cx="418.5" cy="158.3" r="1.2"/><circle cx="421.5" cy="222.1" r="1.2"/><circle cx="417.0" cy="120.4" r="1.2"/><circle cx="417.0" cy="248.0" r="1.2"/><circle cx="420.5" cy="202.9" r="1.2"/><circle cx="416.8" cy="194.0" r="1.2"/><circle cx="421.5" cy="226.4" r="1.2"/><circle cx="421.4" cy="299.4" r="1.2"/><circle cx="416.6" cy="268.6" r="1.2"/><circle cx="419.9" cy="228.1" r="1.2"/><circle cx="417.8" cy="251.0" r="1.2"/><circle cx="417.1" cy="205.6" r="1.2"/><circle cx="418.8" cy="319.8" r="1.2"/><circle cx="420.9" cy="167.9" r="1.2"/><circle cx="419.0" cy="149.3" r="1.2"/><circle cx="421.1" cy="301.5" r="1.2"/><circle cx="440.0" cy="250.6" r="1.2"/><circle cx="441.5" cy="143.6" r="1.2"/><circle cx="442.3" cy="228.7" r="1.2"/><circle cx="442.4" cy="226.7" r="1.2"/><circle cx="438.5" cy="181.3" r="1.2"/><circle cx="438.6" cy="314.4" r="1.2"/><circle cx="442.9" cy="293.0" r="1.2"/><circle cx="440.0" cy="122.7" r="1.2"/><circle cx="442.9" cy="318.3" r="1.2"/><circle cx="438.9" cy="216.9" r="1.2"/><circle cx="438.8" cy="277.3" r="1.2"/><circle cx="442.3" cy="138.2" r="1.2"/><circle cx="440.9" cy="231.0" r="1.2"/><circle cx="439.8" cy="301.9" r="1.2"/><circle cx="440.6" cy="156.6" r="1.2"/><circle cx="441.2" cy="270.6" r="1.2"/><circle cx="439.5" cy="178.6" r="1.2"/><circle cx="443.5" cy="253.0" r="1.2"/><circle cx="440.7" cy="223.9" r="1.2"/><circle cx="439.1" cy="159.4" r="1.2"/><circle cx="440.2" cy="239.4" r="1.2"/><circle cx="439.7" cy="158.4" r="1.2"/><circle cx="438.9" cy="248.8" r="1.2"/><circle cx="439.6" cy="309.2" r="1.2"/><circle cx="442.8" cy="125.6" r="1.2"/><circle cx="439.7" cy="257.2" r="1.2"/><circle cx="439.6" cy="139.1" r="1.2"/><circle cx="443.2" cy="235.6" r="1.2"/><circle cx="440.9" cy="282.6" r="1.2"/><circle cx="442.5" cy="151.9" r="1.2"/><circle cx="439.0" cy="204.8" r="1.2"/><circle cx="440.6" cy="212.7" r="1.2"/><circle cx="442.1" cy="258.1" r="1.2"/><circle cx="443.4" cy="131.7" r="1.2"/><circle cx="440.5" cy="184.6" r="1.2"/><circle cx="464.8" cy="164.7" r="1.2"/><circle cx="461.5" cy="208.7" r="1.2"/><circle cx="462.6" cy="171.3" r="1.2"/><circle cx="461.7" cy="313.1" r="1.2"/><circle cx="462.7" cy="299.5" r="1.2"/><circle cx="463.3" cy="121.1" r="1.2"/><circle cx="465.5" cy="293.9" r="1.2"/><circle cx="465.3" cy="313.8" r="1.2"/><circle cx="464.7" cy="146.6" r="1.2"/><circle cx="462.9" cy="157.0" r="1.2"/><circle cx="462.5" cy="122.9" r="1.2"/><circle cx="462.4" cy="326.8" r="1.2"/><circle cx="461.8" cy="282.5" r="1.2"/><circle cx="462.8" cy="203.1" r="1.2"/><circle cx="465.3" cy="329.0" r="1.2"/><circle cx="463.3" cy="268.0" r="1.2"/><circle cx="461.3" cy="175.3" r="1.2"/><circle cx="465.3" cy="237.4" r="1.2"/><circle cx="463.2" cy="274.6" r="1.2"/><circle cx="460.8" cy="238.5" r="1.2"/><circle cx="463.0" cy="297.6" r="1.2"/><circle cx="461.3" cy="321.4" r="1.2"/><circle cx="460.9" cy="150.9" r="1.2"/><circle cx="463.5" cy="258.5" r="1.2"/><circle cx="461.7" cy="136.4" r="1.2"/><circle cx="465.0" cy="164.2" r="1.2"/><circle cx="463.5" cy="246.3" r="1.2"/><circle cx="462.6" cy="238.4" r="1.2"/><circle cx="463.1" cy="315.6" r="1.2"/><circle cx="461.5" cy="267.6" r="1.2"/><circle cx="483.7" cy="197.1" r="1.2"/><circle cx="485.9" cy="176.0" r="1.2"/><circle cx="484.1" cy="275.4" r="1.2"/><circle cx="482.9" cy="210.8" r="1.2"/><circle cx="487.5" cy="329.1" r="1.2"/><circle cx="482.9" cy="156.9" r="1.2"/><circle cx="483.8" cy="315.3" r="1.2"/><circle cx="486.9" cy="303.4" r="1.2"/><circle cx="484.3" cy="144.7" r="1.2"/><circle cx="486.7" cy="264.8" r="1.2"/><circle cx="485.6" cy="327.2" r="1.2"/><circle cx="485.8" cy="111.7" r="1.2"/><circle cx="486.6" cy="175.9" r="1.2"/><circle cx="485.8" cy="316.6" r="1.2"/><circle cx="483.2" cy="135.4" r="1.2"/><circle cx="483.0" cy="231.7" r="1.2"/><circle cx="483.9" cy="243.1" r="1.2"/><circle cx="486.1" cy="154.8" r="1.2"/><circle cx="485.7" cy="168.1" r="1.2"/><circle cx="506.9" cy="309.2" r="1.2"/><circle cx="508.7" cy="130.3" r="1.2"/><circle cx="506.6" cy="170.9" r="1.2"/><circle cx="504.5" cy="279.6" r="1.2"/><circle cx="507.7" cy="167.6" r="1.2"/><circle cx="508.2" cy="231.4" r="1.2"/><circle cx="506.6" cy="112.1" r="1.2"/><circle cx="504.9" cy="304.3" r="1.2"/><circle cx="509.0" cy="230.0" r="1.2"/></g>

  <!-- Panel 4: N=70000 (sharp fringes, dense dot accumulation with diffraction envelope) -->
  <rect x="520" y="100" width="150" height="240" fill="#FFFFFF" stroke="#2a1a0e" stroke-width="1"/>
  <text x="595" y="92" text-anchor="middle" font-family="'JetBrains Mono', monospace" font-size="10" fill="#2a1a0e">N = 70,000</text>
  <g fill="#0072B2"><circle cx="537.7" cy="238.2" r="1.2"/><circle cx="534.2" cy="138.0" r="1.2"/><circle cx="535.0" cy="307.8" r="1.2"/><circle cx="537.5" cy="299.4" r="1.2"/><circle cx="538.0" cy="156.2" r="1.2"/><circle cx="534.7" cy="132.6" r="1.2"/><circle cx="537.4" cy="304.5" r="1.2"/><circle cx="535.5" cy="246.5" r="1.2"/><circle cx="534.3" cy="314.6" r="1.2"/><circle cx="537.8" cy="324.8" r="1.2"/><circle cx="537.6" cy="303.9" r="1.2"/><circle cx="533.6" cy="272.0" r="1.2"/><circle cx="535.2" cy="314.8" r="1.2"/><circle cx="537.5" cy="300.1" r="1.2"/><circle cx="537.6" cy="168.7" r="1.2"/><circle cx="537.4" cy="133.8" r="1.2"/><circle cx="537.9" cy="298.9" r="1.2"/><circle cx="534.6" cy="289.6" r="1.2"/><circle cx="535.8" cy="177.1" r="1.2"/><circle cx="537.5" cy="160.1" r="1.2"/><circle cx="533.6" cy="152.5" r="1.2"/><circle cx="535.1" cy="300.2" r="1.2"/><circle cx="538.3" cy="171.4" r="1.2"/><circle cx="560.7" cy="197.9" r="1.2"/><circle cx="562.4" cy="228.0" r="1.2"/><circle cx="562.2" cy="135.4" r="1.2"/><circle cx="562.4" cy="149.3" r="1.2"/><circle cx="562.3" cy="168.4" r="1.2"/><circle cx="558.0" cy="205.6" r="1.2"/><circle cx="561.1" cy="179.0" r="1.2"/><circle cx="560.5" cy="222.5" r="1.2"/><circle cx="559.4" cy="236.8" r="1.2"/><circle cx="558.8" cy="265.9" r="1.2"/><circle cx="557.5" cy="313.6" r="1.2"/><circle cx="560.2" cy="268.3" r="1.2"/><circle cx="561.2" cy="257.5" r="1.2"/><circle cx="559.3" cy="125.4" r="1.2"/><circle cx="560.8" cy="182.6" r="1.2"/><circle cx="559.1" cy="296.6" r="1.2"/><circle cx="561.1" cy="176.1" r="1.2"/><circle cx="559.0" cy="199.8" r="1.2"/><circle cx="559.5" cy="175.0" r="1.2"/><circle cx="558.1" cy="202.5" r="1.2"/><circle cx="562.2" cy="259.0" r="1.2"/><circle cx="562.0" cy="245.4" r="1.2"/><circle cx="559.0" cy="230.5" r="1.2"/><circle cx="557.5" cy="173.1" r="1.2"/><circle cx="559.6" cy="237.6" r="1.2"/><circle cx="560.8" cy="212.3" r="1.2"/><circle cx="559.7" cy="157.0" r="1.2"/><circle cx="559.9" cy="308.3" r="1.2"/><circle cx="561.5" cy="147.3" r="1.2"/><circle cx="557.9" cy="223.4" r="1.2"/><circle cx="560.7" cy="183.7" r="1.2"/><circle cx="561.6" cy="275.3" r="1.2"/><circle cx="560.9" cy="159.4" r="1.2"/><circle cx="558.5" cy="115.4" r="1.2"/><circle cx="558.7" cy="214.5" r="1.2"/><circle cx="561.7" cy="126.0" r="1.2"/><circle cx="559.6" cy="248.5" r="1.2"/><circle cx="558.5" cy="263.2" r="1.2"/><circle cx="560.0" cy="163.7" r="1.2"/><circle cx="560.8" cy="111.2" r="1.2"/><circle cx="561.3" cy="279.4" r="1.2"/><circle cx="558.0" cy="203.5" r="1.2"/><circle cx="558.4" cy="320.8" r="1.2"/><circle cx="560.1" cy="121.0" r="1.2"/><circle cx="558.7" cy="296.6" r="1.2"/><circle cx="559.8" cy="286.3" r="1.2"/><circle cx="560.8" cy="327.3" r="1.2"/><circle cx="560.5" cy="319.0" r="1.2"/><circle cx="562.0" cy="244.8" r="1.2"/><circle cx="561.1" cy="221.1" r="1.2"/><circle cx="561.7" cy="230.5" r="1.2"/><circle cx="586.0" cy="273.6" r="1.2"/><circle cx="583.9" cy="167.0" r="1.2"/><circle cx="582.7" cy="250.3" r="1.2"/><circle cx="585.3" cy="224.7" r="1.2"/><circle cx="584.6" cy="170.4" r="1.2"/><circle cx="581.9" cy="172.9" r="1.2"/><circle cx="582.9" cy="180.3" r="1.2"/><circle cx="584.2" cy="140.4" r="1.2"/><circle cx="582.7" cy="262.7" r="1.2"/><circle cx="585.0" cy="124.1" r="1.2"/><circle cx="583.5" cy="229.4" r="1.2"/><circle cx="583.6" cy="155.5" r="1.2"/><circle cx="583.6" cy="309.1" r="1.2"/><circle cx="584.4" cy="263.0" r="1.2"/><circle cx="585.8" cy="278.4" r="1.2"/><circle cx="583.4" cy="111.3" r="1.2"/><circle cx="583.3" cy="275.8" r="1.2"/><circle cx="585.8" cy="319.8" r="1.2"/><circle cx="583.6" cy="274.5" r="1.2"/><circle cx="584.2" cy="242.7" r="1.2"/><circle cx="582.6" cy="158.3" r="1.2"/><circle cx="583.7" cy="116.4" r="1.2"/><circle cx="583.2" cy="259.4" r="1.2"/><circle cx="583.5" cy="146.3" r="1.2"/><circle cx="583.8" cy="138.1" r="1.2"/><circle cx="584.6" cy="115.9" r="1.2"/><circle cx="583.5" cy="234.2" r="1.2"/><circle cx="581.6" cy="251.4" r="1.2"/><circle cx="582.2" cy="211.6" r="1.2"/><circle cx="581.8" cy="193.4" r="1.2"/><circle cx="582.6" cy="181.9" r="1.2"/><circle cx="585.3" cy="193.4" r="1.2"/><circle cx="585.3" cy="293.0" r="1.2"/><circle cx="582.8" cy="128.0" r="1.2"/><circle cx="581.6" cy="228.7" r="1.2"/><circle cx="586.5" cy="187.0" r="1.2"/><circle cx="584.8" cy="281.9" r="1.2"/><circle cx="584.8" cy="275.9" r="1.2"/><circle cx="586.2" cy="153.9" r="1.2"/><circle cx="581.6" cy="143.5" r="1.2"/><circle cx="582.1" cy="257.3" r="1.2"/><circle cx="584.3" cy="158.0" r="1.2"/><circle cx="585.0" cy="278.7" r="1.2"/><circle cx="582.3" cy="243.6" r="1.2"/><circle cx="585.2" cy="135.2" r="1.2"/><circle cx="585.6" cy="322.2" r="1.2"/><circle cx="582.0" cy="115.6" r="1.2"/><circle cx="583.1" cy="259.0" r="1.2"/><circle cx="586.3" cy="197.3" r="1.2"/><circle cx="585.1" cy="126.7" r="1.2"/><circle cx="585.0" cy="248.0" r="1.2"/><circle cx="582.0" cy="279.9" r="1.2"/><circle cx="585.8" cy="242.1" r="1.2"/><circle cx="582.1" cy="326.4" r="1.2"/><circle cx="585.4" cy="186.4" r="1.2"/><circle cx="583.6" cy="191.5" r="1.2"/><circle cx="584.0" cy="185.1" r="1.2"/><circle cx="585.7" cy="290.9" r="1.2"/><circle cx="582.0" cy="321.4" r="1.2"/><circle cx="584.7" cy="292.3" r="1.2"/><circle cx="585.0" cy="205.8" r="1.2"/><circle cx="585.2" cy="322.4" r="1.2"/><circle cx="582.9" cy="287.8" r="1.2"/><circle cx="584.2" cy="216.4" r="1.2"/><circle cx="583.7" cy="270.8" r="1.2"/><circle cx="582.8" cy="297.4" r="1.2"/><circle cx="585.7" cy="129.1" r="1.2"/><circle cx="585.9" cy="163.6" r="1.2"/><circle cx="583.8" cy="244.3" r="1.2"/><circle cx="583.4" cy="116.3" r="1.2"/><circle cx="585.8" cy="150.0" r="1.2"/><circle cx="582.6" cy="285.5" r="1.2"/><circle cx="583.2" cy="303.7" r="1.2"/><circle cx="585.0" cy="170.8" r="1.2"/><circle cx="581.6" cy="318.6" r="1.2"/><circle cx="581.9" cy="268.4" r="1.2"/><circle cx="607.9" cy="276.8" r="1.2"/><circle cx="609.0" cy="252.1" r="1.2"/><circle cx="608.0" cy="284.4" r="1.2"/><circle cx="606.0" cy="158.8" r="1.2"/><circle cx="609.0" cy="177.4" r="1.2"/><circle cx="608.4" cy="214.1" r="1.2"/><circle cx="608.2" cy="203.6" r="1.2"/><circle cx="609.2" cy="182.8" r="1.2"/><circle cx="609.0" cy="169.6" r="1.2"/><circle cx="606.8" cy="136.5" r="1.2"/><circle cx="606.5" cy="136.3" r="1.2"/><circle cx="608.2" cy="277.7" r="1.2"/><circle cx="606.4" cy="157.6" r="1.2"/><circle cx="607.9" cy="269.4" r="1.2"/><circle cx="610.4" cy="225.4" r="1.2"/><circle cx="606.9" cy="132.1" r="1.2"/><circle cx="606.5" cy="160.0" r="1.2"/><circle cx="606.4" cy="113.1" r="1.2"/><circle cx="608.2" cy="170.3" r="1.2"/><circle cx="610.4" cy="231.7" r="1.2"/><circle cx="609.0" cy="137.8" r="1.2"/><circle cx="609.8" cy="218.0" r="1.2"/><circle cx="609.9" cy="236.3" r="1.2"/><circle cx="607.8" cy="206.9" r="1.2"/><circle cx="606.4" cy="121.3" r="1.2"/><circle cx="610.2" cy="215.1" r="1.2"/><circle cx="609.6" cy="198.2" r="1.2"/><circle cx="605.9" cy="248.5" r="1.2"/><circle cx="605.8" cy="142.8" r="1.2"/><circle cx="608.3" cy="176.8" r="1.2"/><circle cx="610.5" cy="136.1" r="1.2"/><circle cx="609.3" cy="243.4" r="1.2"/><circle cx="609.5" cy="159.7" r="1.2"/><circle cx="608.1" cy="209.1" r="1.2"/><circle cx="607.7" cy="299.2" r="1.2"/><circle cx="610.5" cy="177.2" r="1.2"/><circle cx="608.6" cy="244.1" r="1.2"/><circle cx="609.2" cy="318.5" r="1.2"/><circle cx="606.5" cy="156.4" r="1.2"/><circle cx="608.8" cy="144.6" r="1.2"/><circle cx="606.4" cy="126.5" r="1.2"/><circle cx="605.5" cy="209.1" r="1.2"/><circle cx="608.5" cy="174.1" r="1.2"/><circle cx="606.7" cy="265.5" r="1.2"/><circle cx="609.0" cy="209.9" r="1.2"/><circle cx="608.9" cy="313.3" r="1.2"/><circle cx="609.4" cy="247.5" r="1.2"/><circle cx="608.8" cy="315.4" r="1.2"/><circle cx="607.6" cy="229.8" r="1.2"/><circle cx="608.7" cy="309.9" r="1.2"/><circle cx="609.6" cy="125.7" r="1.2"/><circle cx="606.3" cy="177.7" r="1.2"/><circle cx="609.2" cy="235.2" r="1.2"/><circle cx="606.9" cy="137.4" r="1.2"/><circle cx="608.9" cy="263.9" r="1.2"/><circle cx="610.2" cy="220.1" r="1.2"/><circle cx="608.0" cy="127.7" r="1.2"/><circle cx="605.7" cy="205.0" r="1.2"/><circle cx="607.1" cy="165.1" r="1.2"/><circle cx="606.0" cy="321.6" r="1.2"/><circle cx="609.7" cy="236.5" r="1.2"/><circle cx="610.3" cy="329.9" r="1.2"/><circle cx="608.9" cy="169.3" r="1.2"/><circle cx="605.7" cy="276.4" r="1.2"/><circle cx="607.9" cy="253.3" r="1.2"/><circle cx="610.1" cy="149.9" r="1.2"/><circle cx="608.4" cy="249.7" r="1.2"/><circle cx="608.0" cy="130.1" r="1.2"/><circle cx="607.2" cy="183.3" r="1.2"/><circle cx="608.9" cy="298.7" r="1.2"/><circle cx="607.1" cy="262.6" r="1.2"/><circle cx="606.9" cy="317.9" r="1.2"/><circle cx="609.6" cy="231.0" r="1.2"/><circle cx="607.8" cy="179.2" r="1.2"/><circle cx="607.1" cy="323.4" r="1.2"/><circle cx="607.5" cy="223.2" r="1.2"/><circle cx="634.4" cy="254.7" r="1.2"/><circle cx="632.2" cy="200.9" r="1.2"/><circle cx="630.4" cy="189.6" r="1.2"/><circle cx="633.3" cy="247.6" r="1.2"/><circle cx="633.3" cy="154.8" r="1.2"/><circle cx="632.2" cy="314.1" r="1.2"/><circle cx="631.7" cy="263.6" r="1.2"/><circle cx="630.1" cy="324.1" r="1.2"/><circle cx="632.5" cy="162.6" r="1.2"/><circle cx="630.3" cy="231.2" r="1.2"/><circle cx="632.3" cy="130.5" r="1.2"/><circle cx="634.5" cy="310.8" r="1.2"/><circle cx="631.8" cy="135.8" r="1.2"/><circle cx="633.7" cy="219.6" r="1.2"/><circle cx="633.1" cy="222.0" r="1.2"/><circle cx="630.9" cy="293.6" r="1.2"/><circle cx="634.4" cy="163.6" r="1.2"/><circle cx="632.3" cy="194.4" r="1.2"/><circle cx="634.1" cy="221.8" r="1.2"/><circle cx="633.9" cy="300.1" r="1.2"/><circle cx="630.9" cy="283.8" r="1.2"/><circle cx="631.6" cy="315.5" r="1.2"/><circle cx="632.0" cy="290.5" r="1.2"/><circle cx="630.9" cy="175.7" r="1.2"/><circle cx="632.4" cy="329.8" r="1.2"/><circle cx="631.9" cy="142.7" r="1.2"/><circle cx="632.2" cy="185.9" r="1.2"/><circle cx="632.3" cy="229.6" r="1.2"/><circle cx="631.8" cy="180.8" r="1.2"/><circle cx="630.4" cy="263.4" r="1.2"/><circle cx="632.4" cy="161.4" r="1.2"/><circle cx="633.4" cy="119.6" r="1.2"/><circle cx="633.2" cy="265.2" r="1.2"/><circle cx="633.6" cy="194.9" r="1.2"/><circle cx="632.8" cy="290.6" r="1.2"/><circle cx="634.4" cy="219.0" r="1.2"/><circle cx="629.7" cy="220.5" r="1.2"/><circle cx="632.5" cy="301.3" r="1.2"/><circle cx="633.9" cy="206.9" r="1.2"/><circle cx="632.1" cy="210.5" r="1.2"/><circle cx="633.1" cy="200.2" r="1.2"/><circle cx="632.8" cy="144.0" r="1.2"/><circle cx="631.8" cy="323.2" r="1.2"/><circle cx="631.2" cy="262.4" r="1.2"/><circle cx="632.7" cy="297.4" r="1.2"/><circle cx="633.8" cy="299.1" r="1.2"/><circle cx="631.4" cy="179.7" r="1.2"/><circle cx="633.1" cy="277.1" r="1.2"/><circle cx="633.9" cy="117.9" r="1.2"/><circle cx="629.8" cy="248.9" r="1.2"/><circle cx="634.1" cy="329.4" r="1.2"/><circle cx="657.2" cy="205.5" r="1.2"/><circle cx="654.0" cy="249.4" r="1.2"/><circle cx="657.9" cy="207.6" r="1.2"/><circle cx="657.0" cy="308.8" r="1.2"/><circle cx="653.7" cy="285.2" r="1.2"/><circle cx="655.0" cy="192.5" r="1.2"/><circle cx="654.2" cy="226.9" r="1.2"/><circle cx="656.3" cy="284.4" r="1.2"/><circle cx="654.3" cy="127.4" r="1.2"/><circle cx="657.9" cy="246.3" r="1.2"/><circle cx="654.7" cy="310.8" r="1.2"/><circle cx="654.2" cy="211.5" r="1.2"/><circle cx="654.8" cy="166.2" r="1.2"/><circle cx="653.5" cy="287.0" r="1.2"/><circle cx="658.0" cy="259.1" r="1.2"/><circle cx="654.3" cy="207.2" r="1.2"/><circle cx="655.2" cy="239.3" r="1.2"/><circle cx="656.7" cy="203.3" r="1.2"/><circle cx="654.8" cy="296.0" r="1.2"/><circle cx="654.5" cy="194.6" r="1.2"/><circle cx="655.9" cy="162.2" r="1.2"/><circle cx="656.4" cy="236.5" r="1.2"/><circle cx="658.5" cy="175.0" r="1.2"/></g>

  <text x="350" y="396" text-anchor="middle" font-family="'EB Garamond', Georgia, serif" font-size="11" fill="#C8102E" font-style="italic">"The wave is the probability of finding the particle" — Born's rule, made visible.</text>
</svg>