<!--
  Double-Slit Single-Electron Buildup
  Book: Quantum Mechanics — A Companion Guide · Chapter: 02-mathematical-foundations · Figure: 01
-->
<svg viewBox="0 0 700 460" xmlns="http://www.w3.org/2000/svg" role="img" aria-labelledby="fig-title">
  <title id="fig-title">Double-Slit Apparatus and Buildup — Apparatus + Sequential Detector Insets</title>
  <desc>Left: electron source, two-slit barrier, detector screen with sky-blue fan-out wavefronts from each slit. Right: three stacked detector insets (sparse, clustering, fringes) showing buildup of the interference pattern as electron count grows.</desc>
  <metadata><cajal:figure xmlns:cajal="https://bearbrown.ai/cajal/1.0" book="Quantum Mechanics — A Companion Guide" book-slug="quantum-mechanics-a-companion-guide" chapter="02-mathematical-foundations" figure-number="01" figure-title="Double Slit Buildup" figure-slug="double-slit-buildup" figure-type="application" priority="Critical" author="Humanitarians AI" date-generated="2026-05-26" source-file="pantry/02-mathematical-foundations-cajal.md"/></metadata>
  <rect x="0" y="0" width="700" height="460" fill="#FFFFFF"/>
  <text x="32" y="36" font-family="'EB Garamond', Georgia, serif" font-size="14" fill="#2a1a0e">Double-Slit Apparatus — Pattern Builds from Single Hits</text>
  <text x="32" y="56" font-family="'Inter', sans-serif" font-size="11" fill="#545454">Source → two slits → detector. Each electron lands singly; many hits make the interference pattern.</text>

  <!-- Apparatus side -->
  <circle cx="60" cy="240" r="6" fill="#2a1a0e"/>
  <text x="60" y="262" text-anchor="middle" font-family="'JetBrains Mono', monospace" font-size="9" fill="#2a1a0e">source</text>

  <!-- Incident beam -->
  <line x1="68" y1="240" x2="190" y2="240" stroke="#56B4E9" stroke-width="2"/>
  <polygon points="190,240 182,236 182,244" fill="#56B4E9"/>

  <!-- Slit barrier (vertical with two gaps) -->
  <line x1="200" y1="120" x2="200" y2="210" stroke="#2a1a0e" stroke-width="3"/>
  <line x1="200" y1="230" x2="200" y2="250" stroke="#2a1a0e" stroke-width="3"/>
  <line x1="200" y1="270" x2="200" y2="360" stroke="#2a1a0e" stroke-width="3"/>

  <!-- Fan-out wave arcs from each slit -->
  <g stroke="#56B4E9" stroke-width="0.8" fill="none">
    <circle cx="200" cy="220" r="40"/>
    <circle cx="200" cy="220" r="80"/>
    <circle cx="200" cy="220" r="120"/>
    <circle cx="200" cy="220" r="160"/>
    <circle cx="200" cy="260" r="40"/>
    <circle cx="200" cy="260" r="80"/>
    <circle cx="200" cy="260" r="120"/>
    <circle cx="200" cy="260" r="160"/>
  </g>

  <!-- Detector screen -->
  <line x1="360" y1="120" x2="360" y2="360" stroke="#2a1a0e" stroke-width="3"/>
  <text x="386" y="84" text-anchor="end" font-family="'JetBrains Mono', monospace" font-size="9" fill="#2a1a0e">detector screen</text>
  <line x1="360" y1="120" x2="372" y2="90" stroke="#2a1a0e" stroke-width="0.5"/>

  <!-- Vertical divider -->
  <line x1="390" y1="80" x2="390" y2="380" stroke="#aaa" stroke-width="0.5" stroke-dasharray="3 2"/>

  <!-- Right side: 3 stacked insets -->
  <!-- Inset 1: sparse -->
  <rect x="410" y="100" width="240" height="80" fill="#FFFFFF" stroke="#2a1a0e" stroke-width="1"/>
  <text x="530" y="94" text-anchor="middle" font-family="'JetBrains Mono', monospace" font-size="9" fill="#2a1a0e">~10 dots: random-looking</text>
  <g fill="#0072B2">
    <circle cx="430" cy="120" r="1.5"/><circle cx="450" cy="150" r="1.5"/><circle cx="475" cy="135" r="1.5"/><circle cx="500" cy="165" r="1.5"/><circle cx="525" cy="125" r="1.5"/><circle cx="550" cy="155" r="1.5"/><circle cx="580" cy="140" r="1.5"/><circle cx="605" cy="160" r="1.5"/><circle cx="630" cy="130" r="1.5"/>
  </g>

  <!-- Inset 2: clustering -->
  <rect x="410" y="200" width="240" height="80" fill="#FFFFFF" stroke="#2a1a0e" stroke-width="1"/>
  <text x="530" y="194" text-anchor="middle" font-family="'JetBrains Mono', monospace" font-size="9" fill="#2a1a0e">~100 dots: clustering</text>
  <g fill="#0072B2">
    <!-- vertical band hints -->
    <circle cx="431" cy="220" r="1.2"/><circle cx="433" cy="240" r="1.2"/><circle cx="429" cy="260" r="1.2"/>
    <circle cx="461" cy="230" r="1.2"/><circle cx="459" cy="250" r="1.2"/><circle cx="463" cy="270" r="1.2"/>
    <circle cx="491" cy="220" r="1.2"/><circle cx="493" cy="240" r="1.2"/><circle cx="489" cy="260" r="1.2"/>
    <circle cx="521" cy="230" r="1.2"/><circle cx="523" cy="250" r="1.2"/><circle cx="519" cy="270" r="1.2"/>
    <circle cx="551" cy="220" r="1.2"/><circle cx="553" cy="240" r="1.2"/><circle cx="549" cy="260" r="1.2"/>
    <circle cx="581" cy="230" r="1.2"/><circle cx="583" cy="250" r="1.2"/><circle cx="579" cy="270" r="1.2"/>
    <circle cx="611" cy="220" r="1.2"/><circle cx="613" cy="240" r="1.2"/><circle cx="609" cy="260" r="1.2"/>
  </g>

  <!-- Inset 3: sharp fringes -->
  <rect x="410" y="300" width="240" height="80" fill="#FFFFFF" stroke="#2a1a0e" stroke-width="1"/>
  <text x="530" y="294" text-anchor="middle" font-family="'JetBrains Mono', monospace" font-size="9" fill="#2a1a0e">~1000 dots: sharp fringes</text>
  <g fill="#0072B2">
    <rect x="428" y="310" width="6" height="62"/>
    <rect x="458" y="310" width="6" height="62"/>
    <rect x="488" y="310" width="6" height="62"/>
    <rect x="518" y="310" width="6" height="62"/>
    <rect x="548" y="310" width="6" height="62"/>
    <rect x="578" y="310" width="6" height="62"/>
    <rect x="608" y="310" width="6" height="62"/>
    <rect x="638" y="310" width="6" height="62"/>
  </g>

  <text x="350" y="440" text-anchor="middle" font-family="'EB Garamond', Georgia, serif" font-size="11" fill="#C8102E" font-style="italic">The pattern lives in the statistics. Each electron only knows whether it arrives.</text>
</svg>
