<!--
  Phasor Beating — One Stationary State vs. Two
  Book: Quantum Mechanics — A Companion Guide · Chapter: 03-the-schrodinger-equation · Figure: 04
-->
<svg viewBox="0 0 700 460" xmlns="http://www.w3.org/2000/svg" role="img" aria-labelledby="fig-title">
  <title id="fig-title">Phasor Beating — Why Spectral Lines Exist</title>
  <desc>Two panels. Left: single phasor on Argand diagram rotating counterclockwise (blue arrow); flat |ψ|² below (sky-blue horizontal line) — single stationary state phase rotation is invisible. Right: two phasors at different rates (blue + orange) plus their vector sum (reddish purple); sinusoidally oscillating |ψ|² below at the Bohr frequency — two stationary states beat into observable oscillation.</desc>
  <metadata><cajal:figure xmlns:cajal="https://bearbrown.ai/cajal/1.0" book="Quantum Mechanics — A Companion Guide" book-slug="quantum-mechanics-a-companion-guide" chapter="03-the-schrodinger-equation" figure-number="04" figure-title="Phasor Beating" figure-slug="phasor-beating" figure-type="conceptual" priority="Critical" author="Humanitarians AI" date-generated="2026-05-26" source-file="pantry/03-the-schrodinger-equation-cajal.md"/></metadata>
  <rect x="0" y="0" width="700" height="460" fill="#FFFFFF"/>
  <text x="32" y="36" font-family="'EB Garamond', Georgia, serif" font-size="14" fill="#2a1a0e">One Phasor Hides — Two Phasors Beat at the Bohr Frequency</text>
  <text x="32" y="56" font-family="'Inter', sans-serif" font-size="11" fill="#545454">A single stationary state's phase is unobservable. Superpose two and the relative phase becomes a measurable oscillation.</text>

  <line x1="350" y1="80" x2="350" y2="430" stroke="#000000" stroke-width="0.5"/>

  <text x="175" y="98" text-anchor="middle" font-family="'JetBrains Mono', monospace" font-size="11" fill="#0072B2">one stationary state</text>

  <line x1="80" y1="200" x2="270" y2="200" stroke="#2a1a0e" stroke-width="0.8"/>
  <line x1="175" y1="290" x2="175" y2="120" stroke="#2a1a0e" stroke-width="0.8"/>
  <circle cx="175" cy="200" r="70" stroke="#aaa" stroke-width="0.5" fill="none"/>
  <text x="275" y="204" font-family="'JetBrains Mono', monospace" font-size="9" fill="#545454">Re</text>
  <text x="180" y="118" font-family="'JetBrains Mono', monospace" font-size="9" fill="#545454">Im</text>

  <line x1="175" y1="200" x2="225" y2="150" stroke="#0072B2" stroke-width="2.5"/>
  <polygon points="225,150 220,156 226,158" fill="#0072B2"/>

  <path d="M 220 200 A 45 45 0 0 0 205 167" stroke="#000000" stroke-width="0.8" fill="none"/>
  <polygon points="205,167 199,168 204,162" fill="#000000"/>

  <text x="175" y="338" text-anchor="middle" font-family="'JetBrains Mono', monospace" font-size="10" fill="#545454">|ψ|<tspan baseline-shift="super" font-size="8">2</tspan> over time</text>
  <line x1="80" y1="395" x2="270" y2="395" stroke="#2a1a0e" stroke-width="0.8"/>
  <line x1="80" y1="345" x2="80" y2="395" stroke="#2a1a0e" stroke-width="0.8"/>
  <line x1="80" y1="370" x2="270" y2="370" stroke="#56B4E9" stroke-width="2.5"/>
  <text x="175" y="418" text-anchor="middle" font-family="'JetBrains Mono', monospace" font-size="9" fill="#0072B2">flat — phase invisible</text>

  <text x="525" y="98" text-anchor="middle" font-family="'JetBrains Mono', monospace" font-size="11" fill="#0072B2">superposition: two stationary states</text>

  <line x1="430" y1="200" x2="620" y2="200" stroke="#2a1a0e" stroke-width="0.8"/>
  <line x1="525" y1="290" x2="525" y2="120" stroke="#2a1a0e" stroke-width="0.8"/>
  <circle cx="525" cy="200" r="70" stroke="#aaa" stroke-width="0.5" fill="none"/>
  <text x="625" y="204" font-family="'JetBrains Mono', monospace" font-size="9" fill="#545454">Re</text>
  <text x="530" y="118" font-family="'JetBrains Mono', monospace" font-size="9" fill="#545454">Im</text>

  <line x1="525" y1="200" x2="575" y2="155" stroke="#0072B2" stroke-width="2"/>
  <polygon points="575,155 569,160 575,162" fill="#0072B2"/>

  <line x1="525" y1="200" x2="470" y2="160" stroke="#E69F00" stroke-width="2"/>
  <polygon points="470,160 477,163 471,167" fill="#E69F00"/>

  <line x1="525" y1="200" x2="520" y2="115" stroke="#CC79A7" stroke-width="2.5"/>
  <polygon points="520,115 514,121 524,122" fill="#CC79A7"/>
  <text x="548" y="118" font-family="'JetBrains Mono', monospace" font-size="9" fill="#CC79A7">sum</text>

  <text x="525" y="338" text-anchor="middle" font-family="'JetBrains Mono', monospace" font-size="10" fill="#545454">|ψ|<tspan baseline-shift="super" font-size="8">2</tspan> over time</text>
  <line x1="430" y1="395" x2="620" y2="395" stroke="#2a1a0e" stroke-width="0.8"/>
  <line x1="430" y1="345" x2="430" y2="395" stroke="#2a1a0e" stroke-width="0.8"/>
  <line x1="430" y1="370" x2="620" y2="370" stroke="#aaa" stroke-width="0.5" stroke-dasharray="3 2"/>
  <path d="M 430 370 Q 446 350 462 370 T 494 370 T 526 370 T 558 370 T 590 370 T 620 370" stroke="#CC79A7" stroke-width="2.5" fill="none"/>
  <text x="525" y="418" text-anchor="middle" font-family="'JetBrains Mono', monospace" font-size="9" fill="#CC79A7">oscillates at ω₂ − ω₁</text>

  <text x="350" y="448" text-anchor="middle" font-family="'EB Garamond', Georgia, serif" font-size="11" fill="#C8102E" font-style="italic">Rotation alone hides. Relative rotation rings.</text>
</svg>
