<!--
  Probability Density and the Correspondence Principle
  Book: Quantum Mechanics — A Companion Guide · Chapter: 04-one-dimensional-problems · Figure: 02
-->
<svg viewBox="0 0 700 460" xmlns="http://www.w3.org/2000/svg" role="img" aria-labelledby="fig-title">
  <title id="fig-title">|ψ_n|² for n=1, 2, 10 — High n Approaches the Classical Uniform Distribution</title>
  <desc>Three stacked panels showing |ψ_n|² over [0, L] for n=1 (single sin² peak), n=2 (two peaks with node at L/2), and n=10 (ten rapid oscillations whose envelope average approaches the classical uniform 1/L). Dashed horizontal line in bottom panel marks the classical asymptote.</desc>
  <metadata><cajal:figure xmlns:cajal="https://bearbrown.ai/cajal/1.0" book="Quantum Mechanics — A Companion Guide" book-slug="quantum-mechanics-a-companion-guide" chapter="04-one-dimensional-problems" figure-number="02" figure-title="Correspondence Principle" figure-slug="correspondence-principle" figure-type="conceptual" priority="Important" author="Humanitarians AI" date-generated="2026-05-26" source-file="pantry/04-one-dimensional-problems-cajal.md"/></metadata>
  <rect x="0" y="0" width="700" height="460" fill="#FFFFFF"/>
  <text x="32" y="36" font-family="'EB Garamond', Georgia, serif" font-size="14" fill="#2a1a0e">|ψ<tspan baseline-shift="sub" font-size="8">n</tspan>|<tspan baseline-shift="super" font-size="9">2</tspan> Approaches the Classical Uniform 1/L as n Grows Large</text>
  <text x="32" y="56" font-family="'Inter', sans-serif" font-size="11" fill="#545454">Quantum probability oscillates wildly at high n, but its average over any small window approaches uniformity.</text>

  <!-- n=1 -->
  <text x="40" y="100" font-family="'JetBrains Mono', monospace" font-size="11" fill="#0072B2">n=1</text>
  <line x1="80" y1="170" x2="660" y2="170" stroke="#2a1a0e" stroke-width="1"/>
  <line x1="80" y1="90" x2="80" y2="170" stroke="#000000" stroke-width="2"/>
  <line x1="660" y1="90" x2="660" y2="170" stroke="#000000" stroke-width="2"/>
  <path d="M 80 170 Q 370 30 660 170" stroke="#0072B2" stroke-width="2" fill="none"/>

  <!-- n=2 -->
  <text x="40" y="200" font-family="'JetBrains Mono', monospace" font-size="11" fill="#56B4E9">n=2</text>
  <line x1="80" y1="270" x2="660" y2="270" stroke="#2a1a0e" stroke-width="1"/>
  <line x1="80" y1="190" x2="80" y2="270" stroke="#000000" stroke-width="2"/>
  <line x1="660" y1="190" x2="660" y2="270" stroke="#000000" stroke-width="2"/>
  <path d="M 80 270 Q 225 130 370 270 Q 515 130 660 270" stroke="#56B4E9" stroke-width="2" fill="none"/>

  <!-- n=10 -->
  <text x="40" y="300" font-family="'JetBrains Mono', monospace" font-size="11" fill="#C8860E">n=10</text>
  <line x1="80" y1="380" x2="660" y2="380" stroke="#2a1a0e" stroke-width="1"/>
  <line x1="80" y1="300" x2="80" y2="380" stroke="#000000" stroke-width="2"/>
  <line x1="660" y1="300" x2="660" y2="380" stroke="#000000" stroke-width="2"/>
  <line x1="80" y1="345" x2="660" y2="345" stroke="#000000" stroke-width="0.8" stroke-dasharray="4 3"/>
  <text x="668" y="349" font-family="'JetBrains Mono', monospace" font-size="9" fill="#000000">1/L</text>
  <path d="M 80 380 Q 109 310 138 380 Q 167 310 196 380 Q 225 310 254 380 Q 283 310 312 380 Q 341 310 370 380 Q 399 310 428 380 Q 457 310 486 380 Q 515 310 544 380 Q 573 310 602 380 Q 631 310 660 380" stroke="#E69F00" stroke-width="2" fill="none"/>

  <text x="80" y="400" text-anchor="middle" font-family="'JetBrains Mono', monospace" font-size="9" fill="#545454">x = 0</text>
  <text x="660" y="400" text-anchor="middle" font-family="'JetBrains Mono', monospace" font-size="9" fill="#545454">x = L</text>

  <text x="370" y="438" text-anchor="middle" font-family="'EB Garamond', Georgia, serif" font-size="11" fill="#C8102E" font-style="italic">Quantum mechanics doesn't violate classical mechanics — it averages back into it.</text>
</svg>
